<svg preserveAspectRatio="none" width="100%" height="100%" overflow="visible" style="display: block;" viewBox="0 0 13.207 8.708" fill="none" xmlns="http://www.w3.org/2000/svg">
<path id="Vector" d="M12.5 4.354L12.854 4L13.207 4.354L12.854 4.708L12.5 4.354ZM0.5 4.854C0.367392 4.854 0.240215 4.80132 0.146447 4.70755C0.0526785 4.61379 0 4.48661 0 4.354C0 4.22139 0.0526785 4.09421 0.146447 4.00045C0.240215 3.90668 0.367392 3.854 0.5 3.854V4.854ZM8.854 0L12.854 4L12.146 4.708L8.146 0.708L8.854 0ZM12.854 4.708L8.854 8.708L8.146 8L12.146 4L12.854 4.708ZM12.5 4.854H0.5V3.854H12.5V4.854Z" fill="var(--fill-0, white)"/>
</svg>
